<svg width="279" height="271" viewBox="0 0 279 271" fill="none" xmlns="http://www.w3.org/2000/svg">
<rect x="58" y="175" width="9" height="44" rx="0.5" fill="#6fe3ad"/>
<rect x="212" y="175" width="9" height="44" rx="0.5" fill="#6fe3ad"/>
<rect x="79" y="155" width="9" height="64" rx="0.5" fill="#6fe3ad"/>
<rect x="162" y="159" width="9" height="60" rx="0.5" fill="#6fe3ad"/>
<rect width="9" height="5" rx="0.5" transform="matrix(1 0 0 -1 79 153)" fill="#6fe3ad"/>
<rect width="9" height="5" rx="0.5" transform="matrix(1 0 0 -1 58 172)" fill="#6fe3ad"/>
<rect width="9" height="2" rx="0.5" transform="matrix(1 0 0 -1 58 165)" fill="#6fe3ad"/>
<rect width="10" height="30" transform="matrix(1 0 0 -1 110 219)" fill="#6fe3ad"/>
<path d="M101 176C94.8481 177.809 87 184.167 84 188C84.1667 190.833 85.1 195.7 87.5 192.5C90.5 188.5 95.5 183 102.5 183C108.1 183 109.833 187.333 110 189.5C113.333 194 120 200.3 120 189.5C120 176 109.5 173.5 101 176Z" fill="#6fe3ad"/>
<path d="M146.5 175C158.374 175 168 185.074 168 197.5C168 209.926 158.374 220 146.5 220C134.626 220 125 209.926 125 197.5C125 185.074 134.626 175 146.5 175ZM148.5 182C140.492 182 134 189.163 134 198C134 206.837 140.492 214 148.5 214C156.508 214 163 206.837 163 198C163 189.163 156.508 182 148.5 182Z" fill="#6fe3ad"/>
<path d="M196.5 175C208.374 175 218 185.074 218 197.5C218 209.926 208.374 220 196.5 220C184.626 220 175 209.926 175 197.5C175 185.074 184.626 175 196.5 175ZM198.5 182C190.492 182 184 189.163 184 198C184 206.837 190.492 214 198.5 214C206.508 214 213 206.837 213 198C213 189.163 206.508 182 198.5 182Z" fill="#6fe3ad"/>
<path d="M69 163H65V165H66.5L69 163Z" fill="#6fe3ad"/>
<path d="M56 163H60V165H58.5L56 163Z" fill="#6fe3ad"/>
<rect x="59" y="160" width="1" height="3" rx="0.3" fill="#6fe3ad"/>
<rect x="62" y="160" width="1" height="3" rx="0.3" fill="#6fe3ad"/>
<rect x="65" y="160" width="1" height="3" rx="0.3" fill="#6fe3ad"/>
<path d="M65.1053 160H59.4211C58.9474 160 58 160 58 158C58 156 60.3684 153 62.2632 152H62.7368C64.6316 153 67 156 67 158C67 160 65.5789 160 65.1053 160Z" fill="#6fe3ad"/>
<rect x="62" y="146" width="1" height="8" fill="#6fe3ad"/>
<rect x="62" y="146" width="1" height="8" fill="#6fe3ad"/>
<rect width="9" height="3" rx="0.5" transform="matrix(1 0 0 -1 79 146)" fill="#6fe3ad"/>
<rect width="9" height="3" rx="1" transform="matrix(1 0 0 -1 79 139)" fill="#6fe3ad"/>
<path d="M87 146L89.5981 143H84.4019L87 146Z" fill="#6fe3ad"/>
<path d="M80 146L82.5981 143H77.4019L80 146Z" fill="#6fe3ad"/>
<rect x="79" y="140" width="1" height="4" rx="0.5" fill="#6fe3ad"/>
<rect x="81" y="140" width="1" height="4" rx="0.5" fill="#6fe3ad"/>
<rect x="85" y="140" width="1" height="4" rx="0.5" fill="#6fe3ad"/>
<rect x="83" y="140" width="1" height="4" rx="0.5" fill="#6fe3ad"/>
<rect x="87" y="140" width="1" height="4" rx="0.5" fill="#6fe3ad"/>
<path d="M86.1053 139H80.4211C79.9474 139 79 139 79 137C79 135 81.3684 132 83.2632 131H83.7368C85.6316 132 88 135 88 137C88 139 86.5789 139 86.1053 139Z" fill="#6fe3ad"/>
<rect x="83" y="126" width="1" height="8" fill="#6fe3ad"/>
<ellipse cx="62.5" cy="151.5" rx="1.5" ry="0.5" fill="#6fe3ad"/>
<path d="M61.2285 141C60.9449 141.43 60.7784 141.944 60.7783 142.497C60.7783 144.001 61.9982 145.222 63.5029 145.222C64.0567 145.222 64.571 145.054 65.001 144.771C64.5138 145.51 63.6768 146 62.7246 146C61.2198 146 60 144.78 60 143.275C60.0001 142.324 60.4889 141.487 61.2285 141Z" fill="#6fe3ad"/>
<rect width="9" height="6" rx="0.5" transform="matrix(1 0 0 -1 162 157)" fill="#6fe3ad"/>
<rect width="9" height="3" transform="matrix(1 0 0 -1 162 152)" fill="#6fe3ad"/>
<path d="M170 152L172.598 149H167.402L170 152Z" fill="#6fe3ad"/>
<path d="M163 152L165.598 149H160.402L163 152Z" fill="#6fe3ad"/>
<path d="M162.5 146L163.799 144.5H161.201L162.5 146Z" fill="#6fe3ad"/>
<path d="M164.5 146L165.799 144.5H163.201L164.5 146Z" fill="#6fe3ad"/>
<path d="M166.5 146L167.799 144.5H165.201L166.5 146Z" fill="#6fe3ad"/>
<path d="M168.5 146L169.799 144.5H167.201L168.5 146Z" fill="#6fe3ad"/>
<path d="M170.5 146L171.799 144.5H169.201L170.5 146Z" fill="#6fe3ad"/>
<rect x="168" y="145" width="1" height="5" rx="0.5" fill="#6fe3ad"/>
<rect x="170" y="145" width="1" height="5" rx="0.5" fill="#6fe3ad"/>
<rect x="162" y="145" width="1" height="5" rx="0.5" fill="#6fe3ad"/>
<rect x="164" y="145" width="1" height="5" rx="0.5" fill="#6fe3ad"/>
<path d="M82.2285 121C81.9449 121.43 81.7784 121.944 81.7783 122.497C81.7783 124.001 82.9982 125.222 84.5029 125.222C85.0567 125.222 85.571 125.054 86.001 124.771C85.5138 125.51 84.6768 126 83.7246 126C82.2198 126 81 124.78 81 123.275C81.0001 122.324 81.4889 121.487 82.2285 121Z" fill="#6fe3ad"/>
<path d="M133.926 34C133.019 35.3749 132.49 37.021 132.49 38.791C132.49 43.6051 136.394 47.5078 141.208 47.5078C142.977 47.5078 144.622 46.9791 145.997 46.0732C144.438 48.4371 141.761 49.998 138.717 49.998C133.903 49.9978 130 46.096 130 41.2822C130 38.2381 131.561 35.559 133.926 34Z" fill="#6fe3ad"/>
<rect x="166" y="145" width="1" height="5" rx="0.5" fill="#6fe3ad"/>
<path d="M79.5 141L80.799 139.5H78.201L79.5 141Z" fill="#6fe3ad"/>
<path d="M81.5 141L82.799 139.5H80.201L81.5 141Z" fill="#6fe3ad"/>
<path d="M83.5 141L84.799 139.5H82.201L83.5 141Z" fill="#6fe3ad"/>
<path d="M85.5 141L86.799 139.5H84.201L85.5 141Z" fill="#6fe3ad"/>
<path d="M87.5 141L88.799 139.5H86.201L87.5 141Z" fill="#6fe3ad"/>
<rect x="163.2" y="101" width="6.6" height="13" rx="0.5" fill="#6fe3ad"/>
<path d="M168.411 103H164.242C163.895 103 163.2 103 163.2 101.75C163.2 100.5 164.937 98.625 166.326 98H166.674C168.063 98.625 169.8 100.5 169.8 101.75C169.8 103 168.758 103 168.411 103Z" fill="#6fe3ad"/>
<rect x="165.842" y="90.6667" width="1.31996" height="9.06667" fill="#6fe3ad"/>
<path d="M165.425 86C165.096 86.4871 164.903 87.0701 164.903 87.6973C164.904 89.402 166.319 90.784 168.064 90.7842C168.706 90.7842 169.303 90.5955 169.802 90.2744C169.236 91.1122 168.265 91.666 167.161 91.666C165.415 91.6658 164 90.2839 164 88.5791C164 87.5007 164.567 86.5521 165.425 86Z" fill="#6fe3ad"/>
<rect x="161" y="113" width="11" height="2" fill="#6fe3ad"/>
<rect x="162.1" y="116" width="8.8" height="1" fill="#6fe3ad"/>
<rect x="163.2" y="117" width="6.6" height="1" fill="#6fe3ad"/>
<rect x="163.2" y="117" width="6.6" height="16" fill="#6fe3ad"/>
<rect x="163.2" y="115" width="1.1" height="3" fill="#6fe3ad"/>
<rect x="168.7" y="115" width="1.1" height="3" fill="#6fe3ad"/>
<path d="M108.537 75.5C80.8544 89.0588 83.0369 122 83.5369 124C80.0369 110.667 80.5644 83.571 106.537 73.5C131.037 64 138.037 54.3333 137.037 49C139.204 54.1667 133.037 63.5 108.537 75.5Z" fill="#6fe3ad"/>
<path d="M165.44 76C193.122 89.5588 190.94 122.5 190.44 124.5C193.94 111.167 193.412 84.071 167.44 74C142.94 64.5 135.94 54.8333 136.94 49.5C134.773 54.6667 140.94 64 165.44 76Z" fill="#6fe3ad"/>
<path d="M149.839 139.337C177.924 126.633 201.928 149.299 203.151 150.958C195.102 139.767 173.878 122.914 149.571 136.521C126.642 149.356 114.731 148.595 111.257 144.427C113.859 149.388 124.982 150.58 149.839 139.337Z" fill="#6fe3ad"/>
<path d="M50.285 233C50.075 233 49.97 232.895 49.97 232.685V226.76C49.97 226.55 50.075 226.445 50.285 226.445H52.625C53.2083 226.445 53.6517 226.597 53.955 226.9C54.2583 227.203 54.41 227.647 54.41 228.23V228.53C54.41 229.11 54.2583 229.553 53.955 229.86C53.6517 230.163 53.2083 230.315 52.625 230.315H50.6V232.685C50.6 232.895 50.495 233 50.285 233ZM50.6 229.685H52.625C53.035 229.685 53.33 229.595 53.51 229.415C53.69 229.232 53.78 228.937 53.78 228.53V228.23C53.78 227.823 53.69 227.53 53.51 227.35C53.33 227.167 53.035 227.075 52.625 227.075H50.6V229.685ZM55.8709 233C55.6609 233 55.5559 232.895 55.5559 232.685V228.475C55.5559 228.265 55.6609 228.16 55.8709 228.16C56.0809 228.16 56.1859 228.265 56.1859 228.475V229.115C56.3693 228.805 56.6209 228.568 56.9409 228.405C57.2609 228.242 57.6359 228.16 58.0659 228.16C58.2759 228.16 58.3809 228.265 58.3809 228.475C58.3809 228.685 58.2759 228.79 58.0659 228.79C57.4793 228.79 57.0259 228.915 56.7059 229.165C56.3893 229.415 56.2159 229.763 56.1859 230.21V232.685C56.1859 232.895 56.0809 233 55.8709 233ZM60.6438 233C60.1138 233 59.7221 232.873 59.4688 232.62C59.2154 232.367 59.0888 231.975 59.0888 231.445C59.0888 230.912 59.2154 230.518 59.4688 230.265C59.7221 230.012 60.1138 229.885 60.6438 229.885H62.8688C62.8554 229.475 62.7571 229.19 62.5738 229.03C62.3938 228.87 62.0838 228.79 61.6438 228.79H61.0638C60.6704 228.79 60.3804 228.828 60.1938 228.905C60.0104 228.978 59.8921 229.107 59.8388 229.29C59.8054 229.39 59.7638 229.463 59.7138 229.51C59.6671 229.553 59.5954 229.575 59.4988 229.575C59.3954 229.575 59.3138 229.547 59.2538 229.49C59.1971 229.43 59.1771 229.35 59.1938 229.25C59.2571 228.87 59.4421 228.593 59.7488 228.42C60.0554 228.247 60.4938 228.16 61.0638 228.16H61.6438C62.2838 228.16 62.7521 228.31 63.0488 228.61C63.3488 228.907 63.4987 229.375 63.4987 230.015V232.685C63.4987 232.895 63.3938 233 63.1838 233C62.9738 233 62.8688 232.895 62.8688 232.685V232.275C62.5388 232.758 61.9838 233 61.2038 233H60.6438ZM60.6438 232.37H61.2038C61.5038 232.37 61.7704 232.338 62.0038 232.275C62.2404 232.212 62.4338 232.107 62.5838 231.96C62.7371 231.813 62.8321 231.615 62.8688 231.365V230.515H60.6438C60.2871 230.515 60.0438 230.58 59.9138 230.71C59.7838 230.84 59.7188 231.085 59.7188 231.445C59.7188 231.802 59.7838 232.045 59.9138 232.175C60.0438 232.305 60.2871 232.37 60.6438 232.37ZM66.5811 235C66.1278 235 65.7911 234.89 65.5711 234.67C65.3544 234.45 65.2461 234.112 65.2461 233.655C65.2461 233.445 65.3511 233.34 65.5611 233.34C65.7711 233.34 65.8761 233.445 65.8761 233.655C65.8761 233.935 65.9244 234.123 66.0211 234.22C66.1178 234.32 66.3044 234.37 66.5811 234.37H68.3811C68.6578 234.37 68.8444 234.32 68.9411 234.22C69.0378 234.123 69.0861 233.935 69.0861 233.655V232.315C68.8961 232.582 68.6611 232.763 68.3811 232.86C68.1011 232.957 67.7811 233.005 67.4211 233.005H67.0711C66.4411 233.005 65.9794 232.858 65.6861 232.565C65.3928 232.272 65.2461 231.813 65.2461 231.19V228.47C65.2461 228.26 65.3511 228.155 65.5611 228.155C65.7711 228.155 65.8761 228.26 65.8761 228.47V231.19C65.8761 231.64 65.9611 231.95 66.1311 232.12C66.3044 232.29 66.6178 232.375 67.0711 232.375H67.4211C67.9944 232.375 68.4144 232.277 68.6811 232.08C68.9511 231.883 69.0861 231.587 69.0861 231.19V228.47C69.0861 228.26 69.1911 228.155 69.4011 228.155C69.6111 228.155 69.7161 228.26 69.7161 228.47V233.655C69.7161 234.112 69.6061 234.45 69.3861 234.67C69.1694 234.89 68.8344 235 68.3811 235H66.5811ZM72.1195 230.83V231.155C72.1195 231.612 72.2078 231.928 72.3845 232.105C72.5645 232.282 72.8845 232.37 73.3445 232.37H74.1645C74.5611 232.37 74.8495 232.323 75.0295 232.23C75.2128 232.137 75.3245 231.975 75.3645 231.745C75.3878 231.645 75.4245 231.57 75.4745 231.52C75.5245 231.47 75.5995 231.445 75.6995 231.445C75.8028 231.445 75.8811 231.473 75.9345 231.53C75.9911 231.583 76.0111 231.663 75.9945 231.77C75.9411 232.187 75.7628 232.497 75.4595 232.7C75.1595 232.9 74.7278 233 74.1645 233H73.3445C72.7078 233 72.2395 232.85 71.9395 232.55C71.6395 232.25 71.4895 231.785 71.4895 231.155V230.015C71.4895 229.368 71.6395 228.897 71.9395 228.6C72.2395 228.3 72.7078 228.153 73.3445 228.16H74.1645C74.8045 228.16 75.2728 228.31 75.5695 228.61C75.8695 228.907 76.0195 229.375 76.0195 230.015V230.515C76.0195 230.725 75.9145 230.83 75.7045 230.83H72.1195ZM73.3445 228.79C72.8845 228.783 72.5645 228.868 72.3845 229.045C72.2078 229.222 72.1195 229.545 72.1195 230.015V230.2H75.3895V230.015C75.3895 229.552 75.3011 229.232 75.1245 229.055C74.9478 228.878 74.6278 228.79 74.1645 228.79H73.3445ZM78.1073 233C77.8973 233 77.7923 232.895 77.7923 232.685V228.475C77.7923 228.265 77.8973 228.16 78.1073 228.16C78.3173 228.16 78.4223 228.265 78.4223 228.475V229.115C78.6056 228.805 78.8573 228.568 79.1773 228.405C79.4973 228.242 79.8723 228.16 80.3023 228.16C80.5123 228.16 80.6173 228.265 80.6173 228.475C80.6173 228.685 80.5123 228.79 80.3023 228.79C79.7156 228.79 79.2623 228.915 78.9423 229.165C78.6256 229.415 78.4523 229.763 78.4223 230.21V232.685C78.4223 232.895 78.3173 233 78.1073 233ZM86.3974 233.005C86.2974 233.005 86.2191 232.978 86.1624 232.925C86.1091 232.868 86.0824 232.79 86.0824 232.69V227.075H84.0174C83.9174 227.075 83.8391 227.048 83.7824 226.995C83.7291 226.938 83.7024 226.86 83.7024 226.76C83.7024 226.66 83.7291 226.583 83.7824 226.53C83.8391 226.473 83.9174 226.445 84.0174 226.445H88.7774C88.8774 226.445 88.9541 226.473 89.0074 226.53C89.0641 226.583 89.0924 226.66 89.0924 226.76C89.0924 226.86 89.0641 226.938 89.0074 226.995C88.9541 227.048 88.8774 227.075 88.7774 227.075H86.7124V232.69C86.7124 232.787 86.6841 232.863 86.6274 232.92C86.5741 232.977 86.4974 233.005 86.3974 233.005ZM90.4775 227.28C90.2175 227.28 90.0875 227.148 90.0875 226.885V226.635C90.0875 226.378 90.2175 226.25 90.4775 226.25H90.7225C90.9725 226.25 91.0975 226.378 91.0975 226.635V226.885C91.0975 227.148 90.9725 227.28 90.7225 227.28H90.4775ZM90.5975 233C90.3875 233 90.2825 232.895 90.2825 232.685V228.475C90.2825 228.265 90.3875 228.16 90.5975 228.16C90.8075 228.16 90.9125 228.265 90.9125 228.475V232.685C90.9125 232.895 90.8075 233 90.5975 233ZM98.2309 228.155C98.8009 228.155 99.2075 228.295 99.4509 228.575C99.6975 228.855 99.8209 229.32 99.8209 229.97V232.69C99.8209 232.9 99.7159 233.005 99.5059 233.005C99.2959 233.005 99.1909 232.9 99.1909 232.69V229.97C99.1909 229.55 99.1159 229.248 98.9659 229.065C98.8192 228.878 98.5742 228.785 98.2309 228.785H97.8159C97.3992 228.785 97.1009 228.878 96.9209 229.065C96.7409 229.248 96.6509 229.55 96.6509 229.97V232.69C96.6509 232.9 96.5459 233.005 96.3359 233.005C96.1259 233.005 96.0209 232.9 96.0209 232.69V229.97C96.0209 229.55 95.9459 229.248 95.7959 229.065C95.6492 228.878 95.4042 228.785 95.0609 228.785H94.6459C94.2292 228.785 93.9309 228.878 93.7509 229.065C93.5709 229.248 93.4809 229.55 93.4809 229.97V232.69C93.4809 232.9 93.3759 233.005 93.1659 233.005C92.9559 233.005 92.8509 232.9 92.8509 232.69V228.475C92.8509 228.265 92.9559 228.16 93.1659 228.16C93.3759 228.16 93.4809 228.265 93.4809 228.475V228.81C93.6375 228.577 93.8175 228.41 94.0209 228.31C94.2275 228.207 94.4825 228.155 94.7859 228.155H95.0609C95.4309 228.155 95.7259 228.215 95.9459 228.335C96.1692 228.452 96.3425 228.645 96.4659 228.915C96.6192 228.642 96.8009 228.447 97.0109 228.33C97.2209 228.213 97.4892 228.155 97.8159 228.155H98.2309ZM102.129 230.83V231.155C102.129 231.612 102.218 231.928 102.394 232.105C102.574 232.282 102.894 232.37 103.354 232.37H104.174C104.571 232.37 104.859 232.323 105.039 232.23C105.223 232.137 105.334 231.975 105.374 231.745C105.398 231.645 105.434 231.57 105.484 231.52C105.534 231.47 105.609 231.445 105.709 231.445C105.813 231.445 105.891 231.473 105.944 231.53C106.001 231.583 106.021 231.663 106.004 231.77C105.951 232.187 105.773 232.497 105.469 232.7C105.169 232.9 104.738 233 104.174 233H103.354C102.718 233 102.249 232.85 101.949 232.55C101.649 232.25 101.499 231.785 101.499 231.155V230.015C101.499 229.368 101.649 228.897 101.949 228.6C102.249 228.3 102.718 228.153 103.354 228.16H104.174C104.814 228.16 105.283 228.31 105.579 228.61C105.879 228.907 106.029 229.375 106.029 230.015V230.515C106.029 230.725 105.924 230.83 105.714 230.83H102.129ZM103.354 228.79C102.894 228.783 102.574 228.868 102.394 229.045C102.218 229.222 102.129 229.545 102.129 230.015V230.2H105.399V230.015C105.399 229.552 105.311 229.232 105.134 229.055C104.958 228.878 104.638 228.79 104.174 228.79H103.354ZM108.887 232.995C108.474 232.995 108.154 232.908 107.927 232.735C107.7 232.558 107.56 232.292 107.507 231.935C107.494 231.828 107.515 231.747 107.572 231.69C107.632 231.63 107.714 231.6 107.817 231.6C107.92 231.6 107.995 231.627 108.042 231.68C108.092 231.73 108.127 231.807 108.147 231.91C108.18 232.08 108.254 232.198 108.367 232.265C108.48 232.332 108.654 232.365 108.887 232.365H110.527C110.824 232.365 111.025 232.312 111.132 232.205C111.239 232.098 111.292 231.897 111.292 231.6C111.292 231.303 111.239 231.102 111.132 230.995C111.025 230.888 110.824 230.835 110.527 230.835H108.912C108.462 230.835 108.125 230.725 107.902 230.505C107.682 230.285 107.572 229.95 107.572 229.5C107.572 229.04 107.682 228.702 107.902 228.485C108.122 228.265 108.459 228.155 108.912 228.155H110.477C111.244 228.155 111.677 228.487 111.777 229.15C111.797 229.253 111.777 229.335 111.717 229.395C111.66 229.452 111.579 229.48 111.472 229.48C111.372 229.48 111.297 229.455 111.247 229.405C111.2 229.352 111.165 229.277 111.142 229.18C111.112 229.03 111.047 228.927 110.947 228.87C110.847 228.813 110.69 228.785 110.477 228.785H108.912C108.635 228.785 108.447 228.833 108.347 228.93C108.25 229.027 108.202 229.217 108.202 229.5C108.202 229.77 108.252 229.955 108.352 230.055C108.452 230.155 108.639 230.205 108.912 230.205H110.527C111 230.205 111.35 230.32 111.577 230.55C111.807 230.777 111.922 231.127 111.922 231.6C111.922 232.073 111.807 232.425 111.577 232.655C111.35 232.882 111 232.995 110.527 232.995H108.887ZM117.743 233C117.213 233 116.822 232.873 116.568 232.62C116.315 232.367 116.188 231.975 116.188 231.445C116.188 230.912 116.315 230.518 116.568 230.265C116.822 230.012 117.213 229.885 117.743 229.885H119.968C119.955 229.475 119.857 229.19 119.673 229.03C119.493 228.87 119.183 228.79 118.743 228.79H118.163C117.77 228.79 117.48 228.828 117.293 228.905C117.11 228.978 116.992 229.107 116.938 229.29C116.905 229.39 116.863 229.463 116.813 229.51C116.767 229.553 116.695 229.575 116.598 229.575C116.495 229.575 116.413 229.547 116.353 229.49C116.297 229.43 116.277 229.35 116.293 229.25C116.357 228.87 116.542 228.593 116.848 228.42C117.155 228.247 117.593 228.16 118.163 228.16H118.743C119.383 228.16 119.852 228.31 120.148 228.61C120.448 228.907 120.598 229.375 120.598 230.015V232.685C120.598 232.895 120.493 233 120.283 233C120.073 233 119.968 232.895 119.968 232.685V232.275C119.638 232.758 119.083 233 118.303 233H117.743ZM117.743 232.37H118.303C118.603 232.37 118.87 232.338 119.103 232.275C119.34 232.212 119.533 232.107 119.683 231.96C119.837 231.813 119.932 231.615 119.968 231.365V230.515H117.743C117.387 230.515 117.143 230.58 117.013 230.71C116.883 230.84 116.818 231.085 116.818 231.445C116.818 231.802 116.883 232.045 117.013 232.175C117.143 232.305 117.387 232.37 117.743 232.37ZM122.756 233C122.546 233 122.441 232.895 122.441 232.685V228.475C122.441 228.265 122.546 228.16 122.756 228.16C122.966 228.16 123.071 228.265 123.071 228.475V228.845C123.401 228.388 123.956 228.16 124.736 228.16H125.016C125.656 228.16 126.124 228.31 126.421 228.61C126.721 228.907 126.871 229.375 126.871 230.015V232.685C126.871 232.895 126.766 233 126.556 233C126.346 233 126.241 232.895 126.241 232.685V230.015C126.241 229.552 126.151 229.232 125.971 229.055C125.794 228.878 125.476 228.79 125.016 228.79H124.736C124.259 228.79 123.872 228.86 123.576 229C123.279 229.14 123.111 229.358 123.071 229.655V232.685C123.071 232.895 122.966 233 122.756 233ZM130.405 233C129.768 233 129.3 232.85 129 232.55C128.7 232.25 128.55 231.782 128.55 231.145V230.015C128.55 229.375 128.7 228.907 129 228.61C129.3 228.31 129.768 228.16 130.405 228.16H132.45V226.345C132.45 226.135 132.555 226.03 132.765 226.03C132.975 226.03 133.08 226.135 133.08 226.345V232.685C133.08 232.895 132.975 233 132.765 233C132.555 233 132.45 232.895 132.45 232.685V232.375C132.303 232.578 132.095 232.733 131.825 232.84C131.555 232.947 131.208 233 130.785 233H130.405ZM130.405 232.37H130.785C131.278 232.37 131.678 232.297 131.985 232.15C132.295 232 132.45 231.777 132.45 231.48V228.79H130.405C129.945 228.79 129.625 228.88 129.445 229.06C129.268 229.237 129.18 229.555 129.18 230.015V231.145C129.18 231.605 129.268 231.925 129.445 232.105C129.625 232.282 129.945 232.37 130.405 232.37ZM137.961 233C137.751 233 137.646 232.895 137.646 232.685V226.76C137.646 226.55 137.751 226.445 137.961 226.445C138.107 226.445 138.226 226.513 138.316 226.65L140.761 230.37L140.621 230.39L143.076 226.65C143.162 226.513 143.289 226.445 143.456 226.445C143.636 226.445 143.726 226.55 143.726 226.76V232.685C143.726 232.895 143.621 233 143.411 233C143.201 233 143.096 232.895 143.096 232.685V227.39L143.286 227.455L141.046 230.83C140.956 230.967 140.829 231.035 140.666 231.035C140.536 231.035 140.426 230.967 140.336 230.83L138.096 227.455L138.276 227.515V232.685C138.276 232.895 138.171 233 137.961 233ZM147.348 233C146.712 233 146.243 232.85 145.943 232.55C145.643 232.25 145.493 231.785 145.493 231.155V230.015C145.493 229.372 145.643 228.902 145.943 228.605C146.243 228.305 146.712 228.157 147.348 228.16H148.168C148.808 228.16 149.277 228.31 149.573 228.61C149.873 228.907 150.023 229.375 150.023 230.015V231.145C150.023 231.782 149.873 232.25 149.573 232.55C149.277 232.85 148.808 233 148.168 233H147.348ZM146.123 231.155C146.123 231.612 146.212 231.928 146.388 232.105C146.568 232.282 146.888 232.37 147.348 232.37H148.168C148.632 232.37 148.952 232.282 149.128 232.105C149.305 231.925 149.393 231.605 149.393 231.145V230.015C149.393 229.552 149.305 229.232 149.128 229.055C148.952 228.878 148.632 228.79 148.168 228.79H147.348C147.042 228.787 146.798 228.823 146.618 228.9C146.442 228.973 146.315 229.1 146.238 229.28C146.162 229.457 146.123 229.702 146.123 230.015V231.155ZM152.881 232.995C152.468 232.995 152.148 232.908 151.921 232.735C151.695 232.558 151.555 232.292 151.501 231.935C151.488 231.828 151.51 231.747 151.566 231.69C151.626 231.63 151.708 231.6 151.811 231.6C151.915 231.6 151.99 231.627 152.036 231.68C152.086 231.73 152.121 231.807 152.141 231.91C152.175 232.08 152.248 232.198 152.361 232.265C152.475 232.332 152.648 232.365 152.881 232.365H154.521C154.818 232.365 155.02 232.312 155.126 232.205C155.233 232.098 155.286 231.897 155.286 231.6C155.286 231.303 155.233 231.102 155.126 230.995C155.02 230.888 154.818 230.835 154.521 230.835H152.906C152.456 230.835 152.12 230.725 151.896 230.505C151.676 230.285 151.566 229.95 151.566 229.5C151.566 229.04 151.676 228.702 151.896 228.485C152.116 228.265 152.453 228.155 152.906 228.155H154.471C155.238 228.155 155.671 228.487 155.771 229.15C155.791 229.253 155.771 229.335 155.711 229.395C155.655 229.452 155.573 229.48 155.466 229.48C155.366 229.48 155.291 229.455 155.241 229.405C155.195 229.352 155.16 229.277 155.136 229.18C155.106 229.03 155.041 228.927 154.941 228.87C154.841 228.813 154.685 228.785 154.471 228.785H152.906C152.63 228.785 152.441 228.833 152.341 228.93C152.245 229.027 152.196 229.217 152.196 229.5C152.196 229.77 152.246 229.955 152.346 230.055C152.446 230.155 152.633 230.205 152.906 230.205H154.521C154.995 230.205 155.345 230.32 155.571 230.55C155.801 230.777 155.916 231.127 155.916 231.6C155.916 232.073 155.801 232.425 155.571 232.655C155.345 232.882 154.995 232.995 154.521 232.995H152.881ZM161.603 235C161.393 235 161.288 234.895 161.288 234.685V233H159.243C158.606 233 158.138 232.85 157.838 232.55C157.538 232.25 157.388 231.782 157.388 231.145V230.015C157.388 229.375 157.538 228.907 157.838 228.61C158.138 228.31 158.606 228.16 159.243 228.16H159.623C160.046 228.16 160.393 228.217 160.663 228.33C160.936 228.443 161.145 228.607 161.288 228.82V228.475C161.288 228.265 161.393 228.16 161.603 228.16C161.813 228.16 161.918 228.265 161.918 228.475V234.685C161.918 234.895 161.813 235 161.603 235ZM159.243 232.37H161.288V229.685C161.288 229.382 161.133 229.157 160.823 229.01C160.516 228.863 160.116 228.79 159.623 228.79H159.243C158.783 228.79 158.463 228.878 158.283 229.055C158.106 229.232 158.018 229.552 158.018 230.015V231.145C158.018 231.605 158.106 231.925 158.283 232.105C158.463 232.282 158.783 232.37 159.243 232.37ZM167.779 228.16C167.989 228.16 168.094 228.265 168.094 228.475V232.685C168.094 232.895 167.989 233 167.779 233C167.569 233 167.464 232.895 167.464 232.685V232.31C167.137 232.77 166.582 233 165.799 233H165.519C164.882 233 164.414 232.85 164.114 232.55C163.814 232.25 163.664 231.782 163.664 231.145V228.475C163.664 228.265 163.769 228.16 163.979 228.16C164.189 228.16 164.294 228.265 164.294 228.475V231.145C164.294 231.605 164.382 231.925 164.559 232.105C164.739 232.282 165.059 232.37 165.519 232.37H165.799C166.276 232.37 166.662 232.3 166.959 232.16C167.259 232.017 167.427 231.798 167.464 231.505V228.475C167.464 228.265 167.569 228.16 167.779 228.16ZM170.498 230.83V231.155C170.498 231.612 170.587 231.928 170.763 232.105C170.943 232.282 171.263 232.37 171.723 232.37H172.543C172.94 232.37 173.228 232.323 173.408 232.23C173.592 232.137 173.703 231.975 173.743 231.745C173.767 231.645 173.803 231.57 173.853 231.52C173.903 231.47 173.978 231.445 174.078 231.445C174.182 231.445 174.26 231.473 174.313 231.53C174.37 231.583 174.39 231.663 174.373 231.77C174.32 232.187 174.142 232.497 173.838 232.7C173.538 232.9 173.107 233 172.543 233H171.723C171.087 233 170.618 232.85 170.318 232.55C170.018 232.25 169.868 231.785 169.868 231.155V230.015C169.868 229.368 170.018 228.897 170.318 228.6C170.618 228.3 171.087 228.153 171.723 228.16H172.543C173.183 228.16 173.652 228.31 173.948 228.61C174.248 228.907 174.398 229.375 174.398 230.015V230.515C174.398 230.725 174.293 230.83 174.083 230.83H170.498ZM171.723 228.79C171.263 228.783 170.943 228.868 170.763 229.045C170.587 229.222 170.498 229.545 170.498 230.015V230.2H173.768V230.015C173.768 229.552 173.68 229.232 173.503 229.055C173.327 228.878 173.007 228.79 172.543 228.79H171.723ZM179.211 233C179.001 233 178.896 232.895 178.896 232.685V226.76C178.896 226.55 179.001 226.445 179.211 226.445C179.321 226.445 179.427 226.507 179.531 226.63L183.696 231.985H183.546V226.76C183.546 226.55 183.651 226.445 183.861 226.445C184.071 226.445 184.176 226.55 184.176 226.76V232.685C184.176 232.895 184.071 233 183.861 233C183.747 233 183.641 232.938 183.541 232.815L179.376 227.46H179.526V232.685C179.526 232.895 179.421 233 179.211 233ZM187.568 233C187.038 233 186.646 232.873 186.393 232.62C186.139 232.367 186.013 231.975 186.013 231.445C186.013 230.912 186.139 230.518 186.393 230.265C186.646 230.012 187.038 229.885 187.568 229.885H189.793C189.779 229.475 189.681 229.19 189.498 229.03C189.318 228.87 189.008 228.79 188.568 228.79H187.988C187.594 228.79 187.304 228.828 187.118 228.905C186.934 228.978 186.816 229.107 186.763 229.29C186.729 229.39 186.688 229.463 186.638 229.51C186.591 229.553 186.519 229.575 186.423 229.575C186.319 229.575 186.238 229.547 186.178 229.49C186.121 229.43 186.101 229.35 186.118 229.25C186.181 228.87 186.366 228.593 186.673 228.42C186.979 228.247 187.418 228.16 187.988 228.16H188.568C189.208 228.16 189.676 228.31 189.973 228.61C190.273 228.907 190.423 229.375 190.423 230.015V232.685C190.423 232.895 190.318 233 190.108 233C189.898 233 189.793 232.895 189.793 232.685V232.275C189.463 232.758 188.908 233 188.128 233H187.568ZM187.568 232.37H188.128C188.428 232.37 188.694 232.338 188.928 232.275C189.164 232.212 189.358 232.107 189.508 231.96C189.661 231.813 189.756 231.615 189.793 231.365V230.515H187.568C187.211 230.515 186.968 230.58 186.838 230.71C186.708 230.84 186.643 231.085 186.643 231.445C186.643 231.802 186.708 232.045 186.838 232.175C186.968 232.305 187.211 232.37 187.568 232.37ZM194.037 232.765C194.001 232.852 193.951 232.913 193.887 232.95C193.827 232.983 193.752 233 193.662 233C193.496 233 193.377 232.918 193.307 232.755L191.502 228.605C191.419 228.405 191.476 228.268 191.672 228.195C191.862 228.108 191.999 228.163 192.082 228.36L193.847 232.415H193.502L195.397 228.35C195.441 228.26 195.499 228.202 195.572 228.175C195.646 228.145 195.727 228.152 195.817 228.195C196.007 228.282 196.059 228.422 195.972 228.615L194.037 232.765ZM197.45 227.28C197.19 227.28 197.06 227.148 197.06 226.885V226.635C197.06 226.378 197.19 226.25 197.45 226.25H197.695C197.945 226.25 198.07 226.378 198.07 226.635V226.885C198.07 227.148 197.945 227.28 197.695 227.28H197.45ZM197.57 233C197.36 233 197.255 232.895 197.255 232.685V228.475C197.255 228.265 197.36 228.16 197.57 228.16C197.78 228.16 197.885 228.265 197.885 228.475V232.685C197.885 232.895 197.78 233 197.57 233ZM200.989 235C200.592 235 200.287 234.918 200.074 234.755C199.86 234.592 199.729 234.34 199.679 234C199.665 233.893 199.685 233.81 199.739 233.75C199.795 233.693 199.877 233.665 199.984 233.665C200.084 233.665 200.157 233.69 200.204 233.74C200.25 233.793 200.285 233.872 200.309 233.975C200.339 234.125 200.405 234.228 200.509 234.285C200.612 234.342 200.772 234.37 200.989 234.37H202.849C203.129 234.37 203.315 234.322 203.409 234.225C203.505 234.128 203.554 233.942 203.554 233.665V232.32C203.394 232.543 203.175 232.713 202.899 232.83C202.625 232.943 202.289 233 201.889 233H201.509C200.872 233 200.404 232.85 200.104 232.55C199.804 232.25 199.654 231.785 199.654 231.155V230.015C199.654 229.372 199.802 228.902 200.099 228.605C200.399 228.308 200.869 228.16 201.509 228.16H202.329C202.625 228.16 202.874 228.202 203.074 228.285C203.274 228.365 203.434 228.49 203.554 228.66V228.475C203.554 228.265 203.659 228.16 203.869 228.16C204.079 228.16 204.184 228.265 204.184 228.475V233.665C204.184 234.122 204.075 234.458 203.859 234.675C203.645 234.892 203.309 235 202.849 235H200.989ZM201.509 232.37H201.889C202.382 232.37 202.782 232.297 203.089 232.15C203.399 232.003 203.554 231.78 203.554 231.48V229.7C203.554 229.36 203.45 229.123 203.244 228.99C203.04 228.857 202.735 228.79 202.329 228.79H201.509C201.049 228.79 200.729 228.877 200.549 229.05C200.372 229.223 200.284 229.545 200.284 230.015V231.155C200.284 231.608 200.372 231.925 200.549 232.105C200.729 232.282 201.049 232.37 201.509 232.37ZM207.48 233C206.95 233 206.558 232.873 206.305 232.62C206.051 232.367 205.925 231.975 205.925 231.445C205.925 230.912 206.051 230.518 206.305 230.265C206.558 230.012 206.95 229.885 207.48 229.885H209.705C209.691 229.475 209.593 229.19 209.41 229.03C209.23 228.87 208.92 228.79 208.48 228.79H207.9C207.506 228.79 207.216 228.828 207.03 228.905C206.846 228.978 206.728 229.107 206.675 229.29C206.641 229.39 206.6 229.463 206.55 229.51C206.503 229.553 206.431 229.575 206.335 229.575C206.231 229.575 206.15 229.547 206.09 229.49C206.033 229.43 206.013 229.35 206.03 229.25C206.093 228.87 206.278 228.593 206.585 228.42C206.891 228.247 207.33 228.16 207.9 228.16H208.48C209.12 228.16 209.588 228.31 209.885 228.61C210.185 228.907 210.335 229.375 210.335 230.015V232.685C210.335 232.895 210.23 233 210.02 233C209.81 233 209.705 232.895 209.705 232.685V232.275C209.375 232.758 208.82 233 208.04 233H207.48ZM207.48 232.37H208.04C208.34 232.37 208.606 232.338 208.84 232.275C209.076 232.212 209.27 232.107 209.42 231.96C209.573 231.813 209.668 231.615 209.705 231.365V230.515H207.48C207.123 230.515 206.88 230.58 206.75 230.71C206.62 230.84 206.555 231.085 206.555 231.445C206.555 231.802 206.62 232.045 206.75 232.175C206.88 232.305 207.123 232.37 207.48 232.37ZM214.177 233C213.547 233 213.085 232.853 212.792 232.56C212.499 232.267 212.352 231.808 212.352 231.185V228.79H211.792C211.582 228.79 211.477 228.685 211.477 228.475C211.477 228.265 211.582 228.16 211.792 228.16H212.352V227.2C212.352 226.99 212.457 226.885 212.667 226.885C212.877 226.885 212.982 226.99 212.982 227.2V228.16H214.202C214.412 228.16 214.517 228.265 214.517 228.475C214.517 228.685 214.412 228.79 214.202 228.79H212.982V231.185C212.982 231.635 213.069 231.945 213.242 232.115C213.415 232.285 213.727 232.37 214.177 232.37C214.287 232.37 214.367 232.397 214.417 232.45C214.47 232.5 214.497 232.578 214.497 232.685C214.497 232.895 214.39 233 214.177 233ZM216.161 227.28C215.901 227.28 215.771 227.148 215.771 226.885V226.635C215.771 226.378 215.901 226.25 216.161 226.25H216.406C216.656 226.25 216.781 226.378 216.781 226.635V226.885C216.781 227.148 216.656 227.28 216.406 227.28H216.161ZM216.281 233C216.071 233 215.966 232.895 215.966 232.685V228.475C215.966 228.265 216.071 228.16 216.281 228.16C216.491 228.16 216.596 228.265 216.596 228.475V232.685C216.596 232.895 216.491 233 216.281 233ZM220.219 233C219.583 233 219.114 232.85 218.814 232.55C218.514 232.25 218.364 231.785 218.364 231.155V230.015C218.364 229.372 218.514 228.902 218.814 228.605C219.114 228.305 219.583 228.157 220.219 228.16H221.039C221.679 228.16 222.148 228.31 222.444 228.61C222.744 228.907 222.894 229.375 222.894 230.015V231.145C222.894 231.782 222.744 232.25 222.444 232.55C222.148 232.85 221.679 233 221.039 233H220.219ZM218.994 231.155C218.994 231.612 219.083 231.928 219.259 232.105C219.439 232.282 219.759 232.37 220.219 232.37H221.039C221.503 232.37 221.823 232.282 221.999 232.105C222.176 231.925 222.264 231.605 222.264 231.145V230.015C222.264 229.552 222.176 229.232 221.999 229.055C221.823 228.878 221.503 228.79 221.039 228.79H220.219C219.913 228.787 219.669 228.823 219.489 228.9C219.313 228.973 219.186 229.1 219.109 229.28C219.033 229.457 218.994 229.702 218.994 230.015V231.155ZM224.982 233C224.772 233 224.667 232.895 224.667 232.685V228.475C224.667 228.265 224.772 228.16 224.982 228.16C225.192 228.16 225.297 228.265 225.297 228.475V228.845C225.627 228.388 226.182 228.16 226.962 228.16H227.242C227.882 228.16 228.351 228.31 228.647 228.61C228.947 228.907 229.097 229.375 229.097 230.015V232.685C229.097 232.895 228.992 233 228.782 233C228.572 233 228.467 232.895 228.467 232.685V230.015C228.467 229.552 228.377 229.232 228.197 229.055C228.021 228.878 227.702 228.79 227.242 228.79H226.962C226.486 228.79 226.099 228.86 225.802 229C225.506 229.14 225.337 229.358 225.297 229.655V232.685C225.297 232.895 225.192 233 224.982 233Z" fill="#6fe3ad"/>
<rect x="137" y="237" width="93" height="1" fill="#6fe3ad"/>
<rect x="0.5" y="0.5" width="278" height="270" stroke="black"/>
</svg>
